<?xml version="1.0"?>
<svg xmlns="http://www.w3.org/2000/svg" xmlns:xlink="http://www.w3.org/1999/xlink" version="1.1" id="Layer_1" x="0px" y="0px" viewBox="0 0 512 512" style="enable-background:new 0 0 512 512;" xml:space="preserve" width="512px" height="512px"><g><g>
	<g>
		<path d="M427.023,0H153.386c-18.566,0-33.67,15.105-33.67,33.67v0.534h-0.534c-18.566,0-33.67,15.105-33.67,33.67v0.534h-0.534    c-18.566,0-33.67,15.105-33.67,33.67v376.25c0,18.566,15.105,33.67,33.67,33.67h273.637c18.566,0,33.67-15.105,33.67-33.67v-0.534    h0.534c18.566,0,33.67-15.105,33.67-33.67v-0.534h0.534c18.566,0,33.67-15.105,33.67-33.67V33.67    C460.693,15.105,445.589,0,427.023,0z M376.251,478.33c0,9.725-7.912,17.637-17.637,17.637H84.977    c-9.725,0-17.637-7.912-17.637-17.637V340.977h308.91V478.33z M376.251,324.944H67.34V102.079c0-9.725,7.912-17.637,17.637-17.637    h273.637c9.725,0,17.637,7.912,17.637,17.637V324.944z M410.455,444.125c0,9.725-7.912,17.637-17.637,17.637h-0.534v-154.99    h18.171V444.125z M410.455,290.739h-18.171v-188.66c0-18.566-15.105-33.67-33.67-33.67H101.545v-0.534    c0-9.725,7.912-17.637,17.637-17.637h273.637c9.725,0,17.637,7.912,17.637,17.637V290.739z M444.66,409.921    c0,9.725-7.912,17.637-17.637,17.637h-0.534v-154.99h18.171V409.921z M444.66,256.534h-18.171V67.875    c0-18.566-15.105-33.67-33.67-33.67H135.749V33.67c0-9.725,7.912-17.637,17.637-17.637h273.637    c9.725,0,17.637,7.912,17.637,17.637V256.534z" data-original="#000000" class="active-path" data-old_color="#721B1B" fill="#FFFFFF"/>
	</g>
</g><g>
	<g>
		<path d="M238.07,279.508l-39.276-141.395c-3.008-10.832-12.96-18.397-24.202-18.397h-16.757c-11.242,0-21.194,7.565-24.203,18.396    L94.354,279.508c-1.184,4.266,1.313,8.685,5.58,9.87c4.267,1.184,8.685-1.314,9.87-5.579l10.245-36.885h92.327l10.245,36.884    c0.986,3.549,4.209,5.874,7.721,5.874c0.71,0,1.432-0.095,2.15-0.294C236.758,288.193,239.256,283.774,238.07,279.508z     M124.503,230.881l24.578-88.478c1.088-3.917,4.688-6.654,8.754-6.654h16.757c4.066,0,7.666,2.736,8.753,6.654l24.577,88.478    H124.503z" data-original="#000000" class="active-path" data-old_color="#721B1B" fill="#FFFFFF"/>
	</g>
</g><g>
	<g>
		<path d="M341.511,273.637c-0.295,0-0.534-0.239-0.534-0.534v-29.929v-8.551v-38.48c0-4.427-3.589-8.017-8.017-8.017    s-8.017,3.589-8.017,8.017v3.398c-8.166-7.101-18.818-11.415-30.464-11.415c-25.638,0-46.497,20.858-46.497,46.497v8.551    c0,25.638,20.858,46.497,46.497,46.497c11.959,0,22.875-4.541,31.122-11.986c1.995,6.911,8.365,11.986,15.909,11.986    c4.427,0,8.017-3.589,8.017-8.017S345.939,273.637,341.511,273.637z M324.944,243.173c0,16.798-13.666,30.463-30.464,30.463    s-30.463-13.666-30.463-30.463v-8.551c0-16.798,13.666-30.463,30.463-30.463s30.464,13.666,30.464,30.463V243.173z" data-original="#000000" class="active-path" data-old_color="#721B1B" fill="#FFFFFF"/>
	</g>
</g><g>
	<g>
		<path d="M332.96,376.251H110.63c-4.427,0-8.017,3.589-8.017,8.017c0,4.427,3.589,8.017,8.017,8.017h222.33    c4.427,0,8.017-3.589,8.017-8.017C340.977,379.84,337.388,376.251,332.96,376.251z" data-original="#000000" class="active-path" data-old_color="#721B1B" fill="#FFFFFF"/>
	</g>
</g><g>
	<g>
		<path d="M247.449,444.66H110.63c-4.427,0-8.017,3.589-8.017,8.017c0,4.427,3.589,8.017,8.017,8.017h136.818    c4.427,0,8.017-3.589,8.017-8.017C255.466,448.249,251.876,444.66,247.449,444.66z" data-original="#000000" class="active-path" data-old_color="#721B1B" fill="#FFFFFF"/>
	</g>
</g><g>
	<g>
		<path d="M161.934,410.455H110.63c-4.427,0-8.017,3.589-8.017,8.017c0,4.427,3.589,8.017,8.017,8.017h51.304    c4.427,0,8.017-3.589,8.017-8.017C169.951,414.044,166.362,410.455,161.934,410.455z" data-original="#000000" class="active-path" data-old_color="#721B1B" fill="#FFFFFF"/>
	</g>
</g><g>
	<g>
		<path d="M332.96,410.455H196.142c-4.427,0-8.017,3.589-8.017,8.017c0,4.427,3.589,8.017,8.017,8.017H332.96    c4.427,0,8.017-3.589,8.017-8.017C340.977,414.044,337.388,410.455,332.96,410.455z" data-original="#000000" class="active-path" data-old_color="#721B1B" fill="#FFFFFF"/>
	</g>
</g></g> </svg>
