<svg x="0" y="0" width="1564" height="1173" viewBox="0 0 1564 1173" version="1.1" xmlns="http://www.w3.org/2000/svg" display="block">
    <path d="M439.7 145.8l109.6 62.8v125.6L439.7 397l-109.5-62.8V208.6zM796.1 212.1l109.5 62.8v125.6l-109.5 62.8-109.6-62.8V274.9zM560.1 629.4l81 46.4v92.8l-81 46.4-81-46.4v-92.8zM336.3 488.4l81 46.5v92.8l-81 46.4-81-46.4v-92.8zM1060.8 482.2l108.9 62.5v124.9l-108.9 62.5-109-62.5V544.7zM1375.7 482.2l109 62.5v124.9l-109 62.5-108.9-62.5V544.7zM735.2 811.7l60.4 34.6v69.2l-60.4 34.7-60.3-34.7v-69.2zM132.6 452.6l60.4 34.6v69.2L132.6 591l-60.4-34.6v-69.2zM557 426.3l60.4 34.6v69.2L557 564.7l-60.3-34.6v-69.2zM1042.1 63.6l60.4 34.6v69.2l-60.4 34.6-60.4-34.6V98.2zM1224.3 737.1l60.4 34.6v69.2l-60.4 34.7-60.4-34.7v-69.2zM525.9 878.1l72.6 41.6v83.2l-72.6 41.6-72.6-41.6v-83.2zM350.9 739.7l72.6 41.6v83.2l-72.6 41.6-72.6-41.6v-83.2zM1079.3 281.2l60.3 34.6V385l-60.3 34.6-60.4-34.6v-69.2zM610.9 20.1l60.4 34.6v69.2l-60.4 34.6-60.4-34.6V54.7zM888.6 13.6L933 39v50.9l-44.4 25.4-44.4-25.4V39zM1216 407.3l44.4 25.5v50.8L1216 509l-44.3-25.4v-50.8zM1075.1 796.9l44.4 25.5v50.8l-44.4 25.4-44.3-25.4v-50.8zM453.4 1058l44.4 25.5v50.8l-44.4 25.4-44.3-25.4v-50.8zM208.9 328.6l44.3 25.4v50.9l-44.3 25.4-44.4-25.4V354zM163.3 672.6l44.3 25.4v50.9l-44.3 25.4-44.4-25.4V698zM780.8 559.7l70.6 40.4V681l-70.6 40.4-70.5-40.4v-80.9zM1257.5 205l54.5 31.2v62.6l-54.5 31.3-54.6-31.3v-62.6zM1361.1 321l54.6 31.3v62.6l-54.6 31.2-54.6-31.2v-62.6zM950.8 786.5l35.3 20.3v40.5l-35.3 20.3-35.4-20.3v-40.5z" class="g0_1" fill="#FFFFFF"/>
    <g clip-path="url(#c0_1)">
        <path d="M467.8 276.4l290.7 35.7-4.5 36.3-290.6-35.7z" class="g0_1" fill="#FFFFFF" />
    </g>
    <g clip-path="url(#c1_1)">
        <path d="M570.5 663.7l159.7-245.5 30.7 20-159.7 245.4z" class="g0_1" fill="#FFFFFF"/>
    </g>
    <g clip-path="url(#c2_1)">
        <path d="M1079.3 586.4l292.8-.1v36.6l-292.8.2z" class="g0_1" fill="#FFFFFF"/>
    </g>
    <g clip-path="url(#c3_1)">
        <path d="M840.1 365.8l218 195.5-24.4 27.3-218-195.5z" class="g0_1" fill="#FFFFFF" />
    </g>
    <g clip-path="url(#c4_1)">
        <path d="M311.1 565.2L582.2 676l-13.8 33.9-271.1-110.8z" class="g0_1" fill="#FFFFFF"/>
    </g>
</svg>
